<?xml version="1.0" encoding="UTF-8" standalone="no"?>
<!-- Created with Inkscape (http://www.inkscape.org/) -->

<svg
   version="1.1"
   id="svg2"
   width="666.66669"
   height="666.66669"
   viewBox="0 0 666.66669 666.66669"
   sodipodi:docname="Logo B&amp;N.ai"
   xmlns:inkscape="http://www.inkscape.org/namespaces/inkscape"
   xmlns:sodipodi="http://sodipodi.sourceforge.net/DTD/sodipodi-0.dtd"
   xmlns="http://www.w3.org/2000/svg"
   xmlns:svg="http://www.w3.org/2000/svg">
  <defs
     id="defs6">
    <clipPath
       clipPathUnits="userSpaceOnUse"
       id="clipPath24">
      <path
         d="M 0,500 H 500 V 0 H 0 Z"
         id="path22" />
    </clipPath>
  </defs>
  <sodipodi:namedview
     id="namedview4"
     pagecolor="#ffffff"
     bordercolor="#000000"
     borderopacity="0.25"
     inkscape:showpageshadow="2"
     inkscape:pageopacity="0.0"
     inkscape:pagecheckerboard="0"
     inkscape:deskcolor="#d1d1d1" />
  <g
     id="g8"
     inkscape:groupmode="layer"
     inkscape:label="Logo B&amp;N"
     transform="matrix(1.3333333,0,0,-1.3333333,0,666.66667)">
    <g
       id="g10"
       transform="translate(109.136,142.7928)">
      <path
         d="M 0,0 -3.96,9.18 -7.89,0 Z M 1.29,-3.061 H -9.209 L -11.28,-7.92 h -4.019 l 9.449,20.999 h 3.84 L 7.47,-7.92 H 3.39 Z"
         style="fill:#000000;fill-opacity:1;fill-rule:nonzero;stroke:none"
         id="path12" />
    </g>
    <g
       id="g14"
       transform="translate(140.8753,134.8728)">
      <path
         d="M 0,0 -0.03,13.92 -6.93,2.4 h -1.739 l -6.9,11.339 V 0 h -3.72 v 20.999 h 3.21 L -7.739,7.08 0.45,20.999 H 3.66 L 3.69,0 Z"
         style="fill:#000000;fill-opacity:1;fill-rule:nonzero;stroke:none"
         id="path16" />
    </g>
    <g
       id="g18">
      <g
         id="g20"
         clip-path="url(#clipPath24)">
        <g
           id="g26"
           transform="translate(169.7351,145.3728)">
          <path
             d="m 0,0 c 0,4.289 -3.15,7.379 -7.38,7.379 -4.229,0 -7.379,-3.09 -7.379,-7.379 0,-4.29 3.15,-7.38 7.379,-7.38 C -3.15,-7.38 0,-4.29 0,0 m -18.689,0 c 0,6.209 4.799,10.799 11.309,10.799 6.51,0 11.31,-4.56 11.31,-10.799 0,-6.24 -4.8,-10.8 -11.31,-10.8 -6.51,0 -11.309,4.59 -11.309,10.8"
             style="fill:#000000;fill-opacity:1;fill-rule:nonzero;stroke:none"
             id="path28" />
        </g>
        <g
           id="g30"
           transform="translate(194.845,140.9627)">
          <path
             d="m 0,0 c 0,2.1 -1.59,3.029 -4.53,3.029 h -6.3 V -3.03 h 6.3 C -1.59,-3.03 0,-2.1 0,0 M -10.83,11.85 V 6.06 h 5.52 c 2.7,0 4.23,0.96 4.23,2.879 0,1.951 -1.53,2.911 -4.23,2.911 z M 3.93,-0.39 c 0,-3.6 -2.82,-5.7 -8.22,-5.7 h -10.439 v 20.999 h 9.839 c 5.04,0 7.74,-2.13 7.74,-5.46 C 2.85,7.29 1.77,5.699 0.15,4.83 2.4,4.109 3.93,2.34 3.93,-0.39"
             style="fill:#000000;fill-opacity:1;fill-rule:nonzero;stroke:none"
             id="path32" />
        </g>
        <g
           id="g34"
           transform="translate(205.2552,155.8719)">
          <path
             d="m 0,0 h 3.9 v -17.699 h 10.979 v -3.3 l -14.879,0 z"
             style="fill:#000000;fill-opacity:1;fill-rule:nonzero;stroke:none"
             id="path36" />
        </g>
        <g
           id="g38"
           transform="translate(238.0139,142.7928)">
          <path
             d="M 0,0 -3.96,9.18 -7.89,0 Z M 1.29,-3.061 H -9.209 L -11.28,-7.92 h -4.019 l 9.449,20.999 h 3.84 L 7.47,-7.92 H 3.39 Z"
             style="fill:#000000;fill-opacity:1;fill-rule:nonzero;stroke:none"
             id="path40" />
        </g>
        <g
           id="g42"
           transform="translate(269.7537,134.8728)">
          <path
             d="M 0,0 -0.03,13.92 -6.93,2.4 h -1.74 l -6.899,11.339 V 0 h -3.721 v 20.999 h 3.211 L -7.74,7.08 0.45,20.999 H 3.659 L 3.689,0 Z"
             style="fill:#000000;fill-opacity:1;fill-rule:nonzero;stroke:none"
             id="path44" />
        </g>
        <path
           d="m 281.424,155.872 h 3.899 v -20.999 h -3.899 z"
           style="fill:#000000;fill-opacity:1;fill-rule:nonzero;stroke:none"
           id="path46" />
        <g
           id="g48"
           transform="translate(309.0525,138.1424)">
          <path
             d="M 0,0 V -3.27 H -15.749 V 17.729 H -0.42 V 14.46 H -11.85 V 9 H -1.71 V 5.79 H -11.85 V 0 Z"
             style="fill:#000000;fill-opacity:1;fill-rule:nonzero;stroke:none"
             id="path50" />
        </g>
        <g
           id="g52"
           transform="translate(334.3719,155.8719)">
          <path
             d="m 0,0 v -20.999 h -3.21 l -11.58,14.22 v -14.22 h -3.869 V 0 h 3.209 L -3.87,-14.22 V 0 Z"
             style="fill:#000000;fill-opacity:1;fill-rule:nonzero;stroke:none"
             id="path54" />
        </g>
        <g
           id="g56"
           transform="translate(346.5818,152.5721)">
          <path
             d="M 0,0 H -6.96 V 3.3 H 10.859 V 0 H 3.899 V -17.699 H 0 Z"
             style="fill:#000000;fill-opacity:1;fill-rule:nonzero;stroke:none"
             id="path58" />
        </g>
        <g
           id="g60"
           transform="translate(379.5808,145.3728)">
          <path
             d="m 0,0 c 0,4.289 -3.149,7.379 -7.379,7.379 -4.23,0 -7.38,-3.09 -7.38,-7.379 0,-4.29 3.15,-7.38 7.38,-7.38 C -3.149,-7.38 0,-4.29 0,0 m -18.688,0 c 0,6.209 4.799,10.799 11.309,10.799 6.51,0 11.31,-4.56 11.31,-10.799 0,-6.24 -4.8,-10.8 -11.31,-10.8 -6.51,0 -11.309,4.59 -11.309,10.8"
             style="fill:#000000;fill-opacity:1;fill-rule:nonzero;stroke:none"
             id="path62" />
        </g>
        <g
           id="g64"
           transform="translate(388.1912,137.0926)">
          <path
             d="M 0,0 1.351,3.03 C 3.03,1.68 5.7,0.72 8.28,0.72 c 3.27,0 4.65,1.17 4.65,2.73 0,4.529 -12.48,1.56 -12.48,9.36 0,3.389 2.7,6.269 8.46,6.269 2.52,0 5.159,-0.66 6.989,-1.859 L 14.67,14.189 C 12.779,15.3 10.71,15.84 8.88,15.84 5.64,15.84 4.32,14.579 4.32,12.989 4.32,8.52 16.77,11.43 16.77,3.72 16.77,0.36 14.04,-2.52 8.28,-2.52 5.01,-2.52 1.74,-1.5 0,0"
             style="fill:#000000;fill-opacity:1;fill-rule:nonzero;stroke:none"
             id="path66" />
        </g>
        <g
           id="g68"
           transform="translate(360.479,221.2934)">
          <path
             d="m 0,0 v 149.755 h -149.755 v -40.009 h -36.354 L -219.841,91.037 V -37.183 H -86.14 l 29.007,15.779 v 2.551 h -66.33 -60.662 l 0.048,126.638 h 34.322 l 0,-107.785 z"
             style="fill:#000000;fill-opacity:1;fill-rule:nonzero;stroke:none"
             id="path70" />
        </g>
        <g
           id="g72"
           transform="translate(303.7517,267.5224)">
          <path
             d="m 0,0 c -2.653,-1.908 -5.947,-3.227 -9.864,-3.974 -0.558,-0.768 -1.149,-1.438 -1.727,-1.925 -2.084,-1.754 -5.217,-2.249 -9.056,-2.249 -4.717,0 -10.48,1.953 -12.902,4.803 -0.926,1.089 -1.741,2.165 -2.467,3.224 -1.739,-0.486 -2.741,-1.749 -2.994,-3.798 h -2.078 l -0.077,16.359 c -0.587,3.642 -0.331,6.418 -0.394,7.817 h -1.916 l 0.14,-30.152 h 2.052 c 0.329,2.687 1.92,4.031 4.772,4.031 0.658,0 1.783,-0.467 3.373,-1.4 4.059,-2.276 8.2,-3.415 12.423,-3.415 7.679,0 13.671,1.568 17.976,4.703 C 0.468,-3.642 2.013,-0.87 2.593,2.35 1.881,1.523 1.027,0.739 0,0"
             style="fill:#8f8f8f;fill-opacity:1;fill-rule:nonzero;stroke:none"
             id="path74" />
        </g>
        <g
           id="g76"
           transform="translate(274.1423,326.4022)">
          <path
             d="m 0,0 c 1.975,1.754 4.655,2.25 7.562,2.25 4.388,0 9.741,-1.722 12.977,-4.969 3.236,-3.246 5.975,-7.031 6.348,-16.593 h 1.352 l 0.023,14.655 c -0.59,1.819 -1.337,3.284 -2.188,4.542 -0.443,-0.524 -1.291,-0.581 -3.026,-0.225 -1.54,0.317 -3.282,1.816 -5.146,2.637 C 13.843,4.013 10.759,5.062 7.249,5.062 4.992,5.062 3.014,4.875 1.206,4.498 0.427,3.185 0.062,1.571 -0.07,-0.074 -0.045,-0.051 -0.026,-0.023 0,0"
             style="fill:#8f8f8f;fill-opacity:1;fill-rule:nonzero;stroke:none"
             id="path78" />
        </g>
        <g
           id="g80"
           transform="translate(276.1029,293.0287)">
          <path
             d="m 0,0 c 6.691,-4.852 13.288,-9.054 16.058,-12.562 2.77,-3.508 4.388,-6.298 4.388,-9.843 0,-0.401 -0.037,-0.814 -0.102,-1.232 1.514,2.011 2.786,4.811 2.786,7.208 0,3.546 -1.638,6.335 -4.441,9.843 -2.803,3.508 -9.479,7.711 -16.252,12.562 -6.106,4.367 -9.158,7.085 -11.905,10.5 -2.748,3.415 -4.252,7.084 -4.252,10.406 0,0.884 0.07,1.727 0.193,2.541 -1.549,-2.386 -2.437,-5.195 -2.437,-8.518 0,-3.321 1.486,-6.991 4.201,-10.405 C -9.048,7.085 -6.033,4.366 0,0"
             style="fill:#8f8f8f;fill-opacity:1;fill-rule:nonzero;stroke:none"
             id="path82" />
        </g>
        <g
           id="g84"
           transform="translate(303.7907,313.067)">
          <path
             d="m 0,0 c -0.378,9.562 -3.15,13.346 -6.425,16.593 -3.275,3.247 -8.693,4.968 -13.134,4.968 -2.942,0 -5.655,-0.495 -7.654,-2.249 -1.998,-1.754 -2.551,-4.757 -2.551,-7.594 0,-3.209 0.875,-6.275 2.929,-8.999 2.054,-2.725 5.755,-5.589 11.528,-9.844 8.105,-5.934 13.41,-8.888 16.63,-13.03 3.219,-4.143 4.346,-9 4.346,-13.593 0,-4.74 -1.328,-8.662 -5.686,-11.796 -4.357,-3.135 -10.422,-4.703 -18.194,-4.703 -4.274,0 -8.465,1.138 -12.573,3.415 -1.61,0.933 -2.748,1.399 -3.414,1.399 -2.886,0 -4.496,-1.343 -4.829,-4.03 h -2.078 l -0.141,30.151 h 1.939 c 0.139,-3.058 -1.278,-12.69 8.107,-23.601 2.451,-2.85 8.284,-4.804 13.058,-4.804 3.886,0 7.056,0.496 9.166,2.25 2.109,1.754 4.441,5.753 4.441,9 0,3.545 -1.638,6.335 -4.441,9.843 -2.804,3.508 -9.48,7.711 -16.252,12.562 -6.107,4.367 -9.158,7.085 -11.906,10.5 -2.748,3.414 -4.252,7.084 -4.252,10.405 0,5.71 2.64,9.915 6.803,13.031 4.164,3.116 8.379,4.5 14.707,4.5 3.553,0 6.674,-1.049 10.782,-2.766 1.887,-0.821 3.649,-2.32 5.208,-2.636 3.486,-0.708 3.437,0.211 3.659,3.181 v 0.724 L 1.404,22.848 1.368,0 Z"
             style="fill:#ffffff;fill-opacity:1;fill-rule:nonzero;stroke:none"
             id="path86" />
        </g>
      </g>
    </g>
  </g>
</svg>
